# xmcd CD database file
#
# Track frame offsets:
#	150
#	18447
#	35754
#	55505
#	68277
#	80585
#	93130
#	105999
#	119704
#	133376
#	147062
#	188360
#	222896
#	246994
#	261751
#	274496
#	287458
#	302079
#	314964
#	329070
#	342539
#
# Disc length: 4752 seconds
#
# Revision: 0
# Processed by: cddbd v1.5PL3 Copyright (c) Steve Scherf et al.
# Submitted via: CDex 1.50
#
DISCID=41128e15
DTITLE=Charlie Ventura - High On An Open Mike
DYEAR=1900
DGENRE=Jazz
TTITLE0=Slow Joe
TTITLE1=What Is This Thing Called Love
TTITLE2=I'm In The Mood For Love
TTITLE3=How High The Moon
TTITLE4=A.M. - P.M. Song
TTITLE5=Annie, Annie Over
TTITLE6=Synthesis
TTITLE7=Soothe Me
TTITLE8=Blue Champagne
TTITLE9=Stop And Go
TTITLE10=High On An Open Mike
TTITLE11=The Great Lie
TTITLE12=Blue Champagne
TTITLE13=Pennies From Heaven
TTITLE14=Eleven Sixty
TTITLE15=East Of Suez
TTITLE16=Baby, Baby All The Time
TTITLE17=If I Had You
TTITLE18=Euphoria
TTITLE19=Lonely Woman
TTITLE20=F.Y.I.
EXTD=
EXTT0=
EXTT1=
EXTT2=
EXTT3=
EXTT4=
EXTT5=
EXTT6=
EXTT7=
EXTT8=
EXTT9=
EXTT10=
EXTT11=
EXTT12=
EXTT13=
EXTT14=
EXTT15=
EXTT16=
EXTT17=
EXTT18=
EXTT19=
EXTT20=
PLAYORDER=
